<?xml version="1.0" encoding="UTF-8" standalone="no"?><!DOCTYPE svg PUBLIC "-//W3C//DTD SVG 1.1//EN" "http://www.w3.org/Graphics/SVG/1.1/DTD/svg11.dtd"><svg width="100%" height="100%" viewBox="0 0 20 12" version="1.1" xmlns="http://www.w3.org/2000/svg" xmlns:xlink="http://www.w3.org/1999/xlink" xml:space="preserve" xmlns:serif="http://www.serif.com/" style="fill-rule:evenodd;clip-rule:evenodd;stroke-linejoin:round;stroke-miterlimit:2;"><clipPath id="_clip1"><rect id="_0166-eye" serif:id="0166-eye" x="0.012" y="-4.159" width="20" height="20"/></clipPath><g clip-path="url(#_clip1)"><path d="M19.884,6.007c-0.047,-0.053 -1.182,-1.305 -2.956,-2.572c-1.047,-0.748 -2.1,-1.344 -3.13,-1.773c-1.305,-0.544 -2.579,-0.82 -3.786,-0.82c-1.207,0 -2.481,0.276 -3.786,0.82c-1.03,0.429 -2.083,1.026 -3.13,1.773c-1.774,1.267 -2.909,2.52 -2.956,2.572c-0.171,0.19 -0.171,0.479 0,0.669c0.047,0.053 1.182,1.305 2.956,2.572c1.047,0.748 2.1,1.344 3.13,1.773c1.305,0.544 2.579,0.82 3.786,0.82c1.207,0 2.481,-0.276 3.786,-0.82c1.03,-0.429 2.083,-1.026 3.13,-1.773c1.774,-1.267 2.909,-2.52 2.956,-2.572c0.171,-0.19 0.171,-0.479 0,-0.669Zm-7.298,-3.728c0.907,0.763 1.426,1.873 1.426,3.062c0,2.206 -1.794,4 -4,4c-2.206,0 -4,-1.794 -4,-4c0,-1.188 0.519,-2.299 1.426,-3.062c0.822,-0.268 1.691,-0.438 2.574,-0.438c0.883,0 1.752,0.17 2.574,0.438Zm3.743,6.168c-1.533,1.092 -3.873,2.394 -6.317,2.394c-2.444,0 -4.784,-1.302 -6.317,-2.394c-1.157,-0.824 -2.042,-1.658 -2.489,-2.106c0.447,-0.448 1.332,-1.281 2.489,-2.106c0.53,-0.378 1.156,-0.78 1.85,-1.145c-0.347,0.688 -0.533,1.455 -0.533,2.251c0,2.757 2.243,5 5,5c2.757,0 5,-2.243 5,-5c0,-0.796 -0.186,-1.563 -0.533,-2.251c0.694,0.365 1.32,0.768 1.85,1.145c1.157,0.824 2.042,1.658 2.489,2.106c-0.447,0.448 -1.332,1.281 -2.489,2.106Z" style="fill:#fff;fill-rule:nonzero;"/></g></svg>